<svg xmlns="http://www.w3.org/2000/svg" xmlns:xlink="http://www.w3.org/1999/xlink" version="1.1" id="Layer_1" x="0px" y="0px" viewBox="0 0 3000 2000" style="enable-background:new 0 0 3000 2000;" xml:space="preserve">
<g>
	<defs fill="#ffffff">
		<rect id="SVGID_1_" width="3000" height="2000" fill="#ffffff"/>
	</defs>
	<use xlink:href="#SVGID_1_" style="overflow:visible;fill:#FFFFFF;"/>
	<clipPath id="SVGID_00000137854913142962955790000007037624682718828466_" fill="#ffffff">
		<use xlink:href="#SVGID_1_" style="overflow:visible;" fill="#ffffff"/>
	</clipPath>
	<g style="clip-path:url(#SVGID_00000137854913142962955790000007037624682718828466_);">
		<path style="opacity:0.3;fill:#d2f0d2;" d="M3163.398,1593.015c-4.322-29.609,3.536-59.671,21.653-83.486    c45.408-59.689,67.539-130.476,57.019-202.553c-24.386-167.083-214.672-277.643-425.015-246.942    c-141.139,20.6-255.415,99.571-307.972,199.78c-20.712,39.491-62.369,63.508-106.796,59.653    c-16.463-1.428-33.503-0.987-50.796,1.537c-42.84,6.253-80.566,24.293-109.312,49.628c-27.34,24.096-64.758,32.877-100.162,24.239    c-48.296-11.784-105.267-14.51-165.003-5.791c-67.06,9.788-126.645,32.403-171.724,62.219    c-31.279,20.689-70.703,25.375-105.188,10.635c-26.02-11.123-55.152-15.442-84.971-11.09c-39.81,5.81-74.021,26.084-98.385,54.909    c-18.861,22.314-44.874,37.726-73.905,41.025c-1.41,0.16-2.836,0.373-4.251,0.55c-3.184-2.809-6.262-5.761-9.216-8.86    c-25.402-26.649-59.547-44.851-98.532-49.476c-26.77-3.175-52.821,0.406-76.534,9.426    c-42.926,16.327-90.974,11.218-130.995-11.311c-45.141-25.411-101.922-43.953-164.771-51.407    c-55.253-6.554-107.958-3.683-153.758,6.714c-44.269,10.05-91.208,1.231-127.74-25.716    c-28.682-21.156-64.293-35.712-103.871-40.407c-12.041-1.428-23.938-1.881-35.588-1.429    c-55.421,2.148-107.047-25.95-136.932-72.672c-59.752-93.416-173.971-164.035-311.44-180.341    c-216.254-25.651-408.081,92.809-428.456,264.588c-8.306,70.027,13.216,138.07,56.236,195.873    c23.791,31.966,34.969,71.569,30.276,111.139l-27.862,234.898c-10.005,84.349,50.262,160.837,134.611,170.842l1581.199,187.553    c56.637,6.718,109.696-18.276,141.498-60.941l1533.99-223.893c60.768-8.869,102.839-65.321,93.97-126.089L3163.398,1593.015z"/>
		<g>
			<path style="opacity:0.8;fill:#d2f0d2;" d="M3385.946,1612.335c-7.656-127.591-144.075-223.212-304.701-213.574     c-136.143,8.168-245.942,89.339-271.602,191.58c-26.52-17.366-60.211-26.829-96.327-24.662     c-50.396,3.024-93.437,27.927-117.403,63.227c-41.195-25.676-102.251-39.978-169.425-35.948     c-75.231,4.514-140.073,30.946-176.567,67.273c-24.103-28.903-60.589-46.331-100.356-43.945     c-42.733,2.564-78.96,27.395-98.72,62.863c-33.534-3.909-71.33-1.132-109.805,9.51     c-107.008,29.599-178.559,108.533-159.813,176.304c12.668,45.8,63.355,74.745,127.902,79.588l15.752,262.54l1401.342-84.08     l-20.294-338.237C3358.848,1739.38,3389.889,1678.047,3385.946,1612.335z"/>
			<path style="opacity:0.8;fill:#d2f0d2;" d="M-386.273,1739.995c1.227-127.815,132.663-230.177,293.571-228.633     c136.381,1.309,250.125,76.853,280.896,177.673c25.612-18.678,58.785-29.825,94.965-29.477     c50.484,0.484,94.723,23.191,120.435,57.24c39.851-27.716,100.111-45.072,167.402-44.426     c75.363,0.723,141.453,23.86,179.728,58.305c22.618-30.079,58.182-49.32,98.018-48.938     c42.808,0.411,80.238,23.388,101.757,57.817c33.295-5.592,71.182-4.719,110.144,3.974     c108.361,24.177,183.793,99.412,168.48,168.041c-10.348,46.38-59.514,77.838-123.736,85.922l-2.524,263l-1403.797-13.472     l3.252-338.83C-352.818,1865.516-386.905,1805.822-386.273,1739.995z"/>
		</g>
	</g>
	<g style="clip-path:url(#SVGID_00000137854913142962955790000007037624682718828466_);">
		<g>
			<g>
				<path style="fill:#d2f0d2;" d="M2504,795.6c0,3.76-0.72,7.4-2.04,10.84h-116.28c-0.08-0.08-0.12-0.16-0.2-0.24      c0,0.08-0.04,0.16-0.08,0.24c0,0-3.12,0-8.76,0.08c-57.56,0.32-379.32,2.12-379.32-0.72c0-32.8,25.08-59.36,56-59.36      c7.24,0,14.16,1.44,20.48,4.08c5.88-5.04,13.4-8,21.52-8c11.76,0,22.2,6.24,28.44,15.8c0.08-0.16,0.16-0.36,0.24-0.52      c6-12.76,17.68-23.52,32.8-30.56c12.12-5.68,26.4-8.96,41.76-8.96c4.44,0,8.8,0.28,13.04,0.8      c16.28-31.76,48.08-53.36,84.64-53.36c46.76,0,85.8,35.36,94.48,82.24c5.24-3.44,11.44-5.44,18.08-5.44      c13.32,0,24.88,7.96,30.6,19.68c5.76-2.08,12.12-3.24,18.84-3.24c18.08,0,33.68,8.4,41.12,20.56      C2502.32,784.36,2504,789.84,2504,795.6z"/>
			</g>
			<path style="opacity:0.4;fill:#FFFFFF;" d="M2499.36,779.52c-14.84-3.96-30.72-3.84-46.24-3.64c-34.64,0.4-69.24,0.8-103.88,1.2     c-41.48,0.48-78.44-23.24-120.84-19.4c-20.32,1.88-41,10.16-60.52,11.32c-15.48,0.92-34.32-1.84-43.88-11.2     c6-12.76,17.68-23.52,32.8-30.56c12.12-5.68,26.4-8.96,41.76-8.96c4.44,0,8.8,0.28,13.04,0.8     c16.28-31.76,48.08-53.36,84.64-53.36c46.76,0,85.8,35.36,94.48,82.24c5.24-3.44,11.44-5.44,18.08-5.44     c13.32,0,24.88,7.96,30.6,19.68c5.76-2.08,12.12-3.24,18.84-3.24C2476.32,758.96,2491.92,767.36,2499.36,779.52z"/>
		</g>
		<g>
			<path style="fill:#d2f0d2;" d="M998.08,1017.6c0,2.48-0.48,4.88-1.36,7.12H920.4c-0.08-0.04-0.12-0.08-0.16-0.16     c0,0.08-0.04,0.12-0.04,0.16c0,0-254.8,1.64-254.8-0.44c0-21.52,16.44-38.96,36.76-38.96c4.76,0,9.28,0.96,13.44,2.68     c3.88-3.28,8.8-5.24,14.12-5.24c7.72,0,14.56,4.08,18.68,10.36c5.52-12.16,18.84-21.56,35.48-24.88c4.32-0.92,8.92-1.4,13.64-1.4     c2.92,0,5.76,0.16,8.56,0.52c10.68-20.84,31.56-35.04,55.56-35.04c30.72,0,56.32,23.24,62.04,54c3.44-2.28,7.52-3.56,11.88-3.56     c8.72,0,16.32,5.24,20.08,12.92c3.76-1.36,7.96-2.16,12.4-2.16C984.6,993.52,998.08,1004.32,998.08,1017.6z"/>
			<path style="opacity:0.4;fill:#FFFFFF;" d="M998.08,1017.6c0,2.48-0.48,4.88-1.36,7.12h-44.24c-2.72-4.24-4.64-9.04-7.96-12.84     c-15.12-17.28-46.6-3.44-64.84-17.36c-3.32-2.52-6-5.84-9.44-8.16c-10.6-7.04-24.68-2.64-36.96,0.72     c-12.56,3.44-26.72,5.32-38-1.2c-5.96-3.44-10.64-10.56-11.4-17.64c4.32-0.92,8.92-1.4,13.64-1.4c2.92,0,5.76,0.16,8.56,0.52     c10.68-20.84,31.56-35.04,55.56-35.04c30.72,0,56.32,23.24,62.04,54c3.44-2.28,7.52-3.56,11.88-3.56     c8.72,0,16.32,5.24,20.08,12.92c3.76-1.36,7.96-2.16,12.4-2.16C984.6,993.52,998.08,1004.32,998.08,1017.6z"/>
		</g>
		<g>
			<path style="fill:#d2f0d2;" d="M1237.76,458.48c0,3.04-376.16,0.6-376.16,0.6c-0.04-0.08-0.04-0.12-0.04-0.2     c-0.08,0.08-0.16,0.12-0.24,0.2H748.64c-1.28-3.32-1.96-6.84-1.96-10.48c0-19.64,19.84-35.52,44.32-35.52     c6.52,0,12.72,1.12,18.28,3.12c5.56-11.32,16.76-19.04,29.68-19.04c6.4,0,12.4,1.92,17.48,5.24     c8.44-45.44,46.28-79.68,91.6-79.68c0.32,0,0.64,0,0.96,0.04c35.04,0.32,65.44,21.16,81.08,51.68c4.08-0.52,8.32-0.8,12.64-0.8     c33.6,0,62.2,16.2,72.48,38.8c6.08-9.24,16.16-15.28,27.56-15.28c7.88,0,15.16,2.88,20.88,7.76c6.12-2.56,12.84-3.96,19.84-3.96     c21.72,0,40.44,13.52,49.12,33.04C1235.92,441.4,1237.76,449.72,1237.76,458.48z"/>
			<path style="opacity:0.4;fill:#FFFFFF;" d="M1232.6,434c-16.92,5.68-35.96,6.4-54.08,6.8c-42.28,0.92-87.24,1.16-123.2-21.04     c-12.48-7.68-23.48-17.88-36.92-23.68c-22.48-9.72-51.36-7.12-67.92-25.12c-10.72-11.64-12.64-30.52-4.44-44.08     c0.88-1.44,1.84-2.84,2.96-4.12c35.04,0.32,65.44,21.16,81.08,51.68c4.08-0.52,8.32-0.8,12.64-0.8c33.6,0,62.2,16.2,72.48,38.8     c6.08-9.24,16.16-15.28,27.56-15.28c7.88,0,15.16,2.88,20.88,7.76c6.12-2.56,12.84-3.96,19.84-3.96     C1205.2,400.96,1223.92,414.48,1232.6,434z"/>
		</g>
	</g>
	<g style="clip-path:url(#SVGID_00000137854913142962955790000007037624682718828466_);">
		<g>
			<polygon style="fill:#337533;" points="2442.981,2284.406 933.766,2292.218 588.008,2293.991 741.359,1987.288 899.502,1848.314      1115.152,1781.223 1214.974,1645.459 1668.654,1645.459 1846.397,1793.587 2112.318,1879.847 2267.681,2025.626      2271.372,2031.089 2438.284,2277.505    "/>
			<polygon style="opacity:0.1;fill:#d2f0d2;" points="2438.284,2277.505 2322.792,2265.237 2051.217,2086.344 1711.784,2035.211      1606.355,1889.048 1591.163,1782.804 1453.333,1748 1400,1645.459 1668.654,1645.459 1846.397,1793.587 2112.318,1879.847      2267.681,2025.626 2271.372,2031.089    "/>
			<polygon style="fill:#223622;" points="1221.38,1872.275 997.742,2003.263 933.766,2292.218 588.008,2293.991 741.359,1987.288      899.502,1848.314 1115.152,1781.223 1214.974,1645.459    "/>
		</g>
		<g>
			<g>
				<path style="fill:#F9B384;" d="M1580.705,1594.656l0.418-37.29l-54.021,3.821l-1.557,30.818      C1542.758,1595.575,1562.34,1596.485,1580.705,1594.656z"/>
				<path style="fill:#223622;" d="M1639.177,1645.244c-14.646-23.986-34.675-31.99-58.585-35.024l0.112-15.563      c-18.365,1.829-37.946,0.918-55.16-2.652l-2.689,53.239H1639.177z"/>
			</g>
			<g>
				<path style="fill:#223622;" d="M1312.56,1598.293l-4.94,11.29c-23.91,3.033-45.309,15.907-64.953,35.66h113.349l12.058-46.815      C1348.725,1601.717,1330.268,1601.482,1312.56,1598.293z"/>
				<path style="fill:#F9B384;" d="M1368.075,1598.429l9.593-37.242l-47.76-2.547l-17.348,39.653      C1330.268,1601.482,1348.725,1601.717,1368.075,1598.429z"/>
			</g>
			<path style="fill:#223622;" d="M1605.64,1015.455c28.443,185.095,20.377,369.34-19.104,555.284h-67.925     c8.11-120.686,14.305-264.149-4.67-359.151l-129.587,360.743h-74.186l122.264-513.574l42.028-82.358l98.491-11.887     L1605.64,1015.455z"/>
			<path style="fill:#F9B384;" d="M1696.064,620.643l18.255-54.764l49.417,11.543c3.721,18.338-18.481,46.162-34.983,66.995     L1696.064,620.643z"/>
			<polygon style="fill:#F9B384;" points="1529.428,816.114 1472.524,816.776 1466.87,742.245 1466.207,733.33 1523.366,732.821      1525.404,761.095    "/>
			<path style="fill:#223622;" d="M1525.085,755.962c-18.626,13.293-42.984,5.015-58.215-13.717l-0.662-8.915l57.158-0.51     L1525.085,755.962z"/>
			<path style="fill:#F9B384;" d="M1511.8,749.72c-28.88,6.6-61.12-11.92-73.84-36.52l-1.72-44.16l16.16-22.92l68.76,5.92     c-0.32,0.08-0.28,1.04,0,2.68c0.8,4.28,3.44,13.4,5.88,24.4C1533.04,705.88,1537.84,743.76,1511.8,749.72z"/>
			<path style="fill:#FFFFFF;" d="M1463.422,787.908c0,0,42.453,33.962,79.387-14.434l70.047,232.642     c-42.889,30.303-97.11,40.771-162.17,32.264L1463.422,787.908z"/>
			<g style="opacity:0.3;">
				<path style="fill:#337533;" d="M1472.524,816.776c5.876,2.122,11.89,3.411,17.888,4.068c6.003,0.61,12.041,0.473,17.875-0.718      c5.818-1.141,11.575-2.969,16.856-5.892c2.781-1.221,5.193-3.082,7.839-4.644c2.604-1.638,4.873-3.725,7.514-5.473      c-1.949,2.419-3.975,4.852-6.202,7.094c-2.416,2.014-4.677,4.324-7.476,5.888c-5.247,3.691-11.46,5.907-17.754,7.206      C1496.375,826.742,1482.831,823.907,1472.524,816.776z"/>
			</g>
			<path style="fill:#337533;" d="M1694.154,610.455c-38.409,64.858-75.869,121.85-109.731,149.009     c-5.025,4.03-11.433,5.834-17.867,5.502c-12.732-0.659-25.876,0.899-40.516,4.37c3.07,116.378,14.111,224.181,53.703,290.271     c23.847-6.878,52.781-17.935,68.774-31.415c-13.031-44.223-28.438-107.625-39.906-163.019l126.934-226.698L1694.154,610.455z"/>
			<path style="fill:#E28B6D;" d="M1527.04,679.12C1483.333,704,1447,658.667,1447,658.667l74.16-3.947     C1521.96,659,1524.6,668.12,1527.04,679.12z"/>
			<path style="fill:#223622;" d="M1447.715,704.7c5.357-6.932,7.807-18.575,2.972-42.028c15.921,18.01,39.593,22.218,74.292,6.792     c0,0,22.57-8.833,17.406-31.84c-4.67-20.802-22.075-31.84-35.66-14.858c-30.824-8.996-61.132-10.613-74.717,17.406     c0,0-43.302,22.5-6.368,59.009L1447.715,704.7z"/>
			<g>
				<polygon style="fill:#337533;" points="1384.58,1185.355 1377.123,1183.693 1384.904,1148.824 1333.458,1136.312       1326.64,1168.131 1319.167,1166.529 1327.632,1127.028 1393.993,1143.172     "/>
			</g>
			<path style="fill:#F9B384;" d="M1354.319,1075.427c-1.274,1.773-5.943,37.677-5.943,37.677s-20.802,19.503-6.792,31.471     c14.009,11.968,30.991,11.525,39.057,2.66c2.808-8.667,3.026-18.806-0.425-31.028l8.066-39.893L1354.319,1075.427z"/>
			<polygon style="fill:#84b884;" points="1422.651,1182.957 1402.12,1269.918 1394.224,1303.489 1260.905,1253.412      1278.481,1180.104 1286.835,1145.157    "/>
			<g>
				<polygon style="fill:#6F3428;" points="1796.249,604.763 1725.458,647.678 1722.287,622.793 1775.652,590.441     "/>
				<polygon style="fill:#BB9132;" points="1758.045,601.115 1739.894,612.119 1696.804,550.867 1723.668,534.581     "/>
				<path style="fill:#FBC343;" d="M1727.306,532.423l-34.098,20.671c-7.635,4.628-17.508,2.959-23.198-3.921l-57.057-68.999      l86.82-52.632l34.785,82.501C1738.028,518.269,1734.941,527.795,1727.306,532.423z"/>
				<g>
					<path style="fill:#FBC343;" d="M1723.124,488.895l-4.701-1.956c13.101-31.543,10.817-57.168,1.192-62.819       c-5.012-2.938-11.943,0.53-19.031,9.511l-4.003-3.156c12.553-15.902,22.091-12.815,25.613-10.749       C1733.916,426.609,1737.471,454.362,1723.124,488.895z"/>
				</g>
				<g>
					<path style="fill:#FBC343;" d="M1655.193,530.131c-37.252-3.253-60.216-19.241-60.892-32.817       c-0.203-4.076,1.47-13.963,21.373-17.731l0.947,5.004c-11.241,2.13-17.524,6.675-17.233,12.474       c0.557,11.15,22.22,25.023,56.246,27.996L1655.193,530.131z"/>
				</g>
				<path style="opacity:0.6;fill:#FFFFFF;" d="M1686.82,472.219c-2.99-5.179-2.838-10.864,0.34-12.699      c3.178-1.835,8.178,0.876,11.168,6.055c2.99,5.179,2.838,10.864-0.34,12.699S1689.81,477.397,1686.82,472.219z"/>
			</g>
			<path style="fill:#F9B384;" d="M1763.699,576.128c1.239,8.827-4.337,16.708-16.108,16.708c-7.356,0-17.657-10.088-19.825-22.068     c-1.788-9.878,2.005-16.355,8.983-19.23C1743.906,548.589,1761.362,559.476,1763.699,576.128z"/>
			<g>
				<g>
					
						<rect x="1564.281" y="396.687" transform="matrix(0.3005 -0.9538 0.9538 0.3005 687.66 1796.0049)" style="fill:#FBC343;" width="7.999" height="64.988"/>
				</g>
				<g>
					
						<rect x="1636.969" y="363.109" transform="matrix(0.1739 -0.9848 0.9848 0.1739 1017.6378 1947.2955)" style="fill:#FBC343;" width="64.984" height="7.997"/>
				</g>
				<g>
					
						<rect x="1603.339" y="348.293" transform="matrix(0.8422 -0.5391 0.5391 0.8422 48.3143 926.6586)" style="fill:#FBC343;" width="7.997" height="64.984"/>
				</g>
			</g>
			<path style="fill:#337533;" d="M1427.762,933.097l-10.189,153.679c56.887-2.547,95.095-21.226,95.095-21.226     c4.939-91.724-6.839-194.358-43.143-286.663c-92.206,34.266-118.212,147.797-131.893,316.504l54.015,6.264L1427.762,933.097z"/>
			<path style="fill:#F9B384;" d="M1448.564,719.983c-17.346,6.187-28.435,4.787-29.357-11.792     c-0.529-9.515,9.273-17.093,17.913-13.075c3.745,1.742,7.246,5.047,10.595,9.584L1448.564,719.983z"/>
			<path style="opacity:0.15;fill:#223622;" d="M1402.12,1269.918l-7.896,33.572l-133.319-50.078l17.576-73.307     C1294.885,1214.033,1329.577,1256.112,1402.12,1269.918z"/>
			<path style="fill:#223622;" d="M1597.058,812.733c2.293,7.293,4.291,14.654,6.221,22.03c1.984,7.364,3.73,14.782,5.469,22.202     c1.708,7.427,3.342,14.871,4.792,22.357c1.439,7.489,2.854,14.982,3.896,22.562l-1.941,0.444     c-2.355-7.279-4.336-14.644-6.293-22.014c-1.946-7.373-3.708-14.787-5.396-22.219c-1.657-7.439-3.308-14.879-4.72-22.373     c-1.467-7.482-2.865-14.98-3.968-22.545L1597.058,812.733z"/>
			<path style="fill:#223622;" d="M1430.455,881.352c0.256,7.388,0.209,14.761,0.092,22.131c-0.061,7.373-0.365,14.733-0.677,22.094     c-0.344,7.359-0.763,14.714-1.371,22.061c-0.619,7.346-1.263,14.69-2.289,22.016l-1.989-0.096     c-0.319-7.391-0.255-14.763-0.167-22.134c0.1-7.371,0.388-14.732,0.752-22.09c0.396-7.356,0.798-14.713,1.445-22.057     c0.591-7.347,1.252-14.691,2.215-22.02L1430.455,881.352z"/>
			<path style="fill:#4fa34f;" d="M1501.539,1243.523c2.289-8.409,4.865-16.718,7.506-25.003c2.586-8.305,5.507-16.493,8.245-24.745     c2.888-8.2,5.84-16.377,8.878-24.524c3.117-8.12,6.256-16.232,9.758-24.217l1.88,0.656c-2.23,8.43-4.821,16.733-7.436,25.028     c-2.693,8.268-5.472,16.506-8.315,24.721c-2.994,8.163-5.804,16.39-8.949,24.5c-3.09,8.129-6.245,16.235-9.687,24.242     L1501.539,1243.523z"/>
			<path style="fill:#223622;" d="M1438.167,710.777c-0.891-1.249-1.721-2.532-2.596-3.718c-0.903-1.159-1.732-2.358-2.755-3.171     c-0.99-0.895-1.892-1.305-2.832-1.059c-1.052,0.135-2.105,1.262-3.274,2.203l-0.984-0.621c0.651-1.484,1.411-3.145,3.392-4.034     c2.052-0.928,4.422,0.111,5.642,1.293c2.536,2.524,3.897,5.491,4.492,8.69L1438.167,710.777z"/>
			<path style="fill:#F9B384;" d="M1727.057,578.762c1.855-7.025,0.899-13.369-2.135-14.17c-3.034-0.801-7.701,2.483-9.556,9.508     c-1.855,7.025-3.986,17.142,0.797,19.401C1724.645,597.505,1725.202,585.787,1727.057,578.762z"/>
		</g>
	</g>
</g>
</svg>